<?xml version="1.0" encoding="UTF-8"?>
<svg width="512" height="512" version="1.1" viewBox="0 0 512 512" xmlns="http://www.w3.org/2000/svg"><defs><clipPath id="clipPath4"><path d="m477.31 0.38477a30 30 0 0 0-19.586 11.982l-265.89 365.37-79.004-116.57a30 30 0 0 0-41.664-8.0039 30 30 0 0 0-8.0039 41.664l102.96 151.93a30.003 30.003 0 0 0 49.092 0.82226l291.02-399.91a30 30 0 0 0-6.6055-41.908 30 30 0 0 0-22.322-5.377z" fill="#fff" stroke-linecap="round" stroke-linejoin="round"/></clipPath></defs><path d="m481.98 30.019-145.51 199.95" fill="#36a212" stroke="#36a212" stroke-linecap="round" stroke-linejoin="round" stroke-width="60"/><circle cx="215" cy="297" r="215" fill="#e8315f" stroke-width="0"/><path d="m88 278 102.96 151.93 291.02-399.91" display="none" fill="none" stroke="#000" stroke-linecap="round" stroke-linejoin="round" stroke-width="60"/><circle cx="215" cy="297" r="215" clip-path="url(#clipPath4)" fill="#fff" stroke-width="0"/></svg>
